<?xml version="1.0" encoding="utf-8"?>
<!-- Generator: Adobe Illustrator 13.0.0, SVG Export Plug-In . SVG Version: 6.00 Build 14948)  -->
<!DOCTYPE svg PUBLIC "-//W3C//DTD SVG 1.0//EN" "http://www.w3.org/TR/2001/REC-SVG-20010904/DTD/svg10.dtd">
<svg version="1.0" id="Layer_1" xmlns="http://www.w3.org/2000/svg" xmlns:xlink="http://www.w3.org/1999/xlink" x="0px" y="0px"
	 width="200px" height="200px" viewBox="0 0 200 200" enable-background="new 0 0 200 200" xml:space="preserve">
<path d="M197.775,179.497c0,4.751-3.855,8.613-8.606,8.613H11.666c-4.76,0-8.613-3.862-8.613-8.613V21.708
	c0-4.754,3.853-8.62,8.613-8.62h177.503c4.751,0,8.606,3.866,8.606,8.62V179.497z"/>
<path fill="#FFFFFF" d="M23.631,45.301h10.412v2.98c1.421-1.534,4.975-3.547,9.067-3.547c5.11,0,7.955,1.541,9.315,3.683
	c2.445-2.432,5.683-3.683,9.873-3.683c8.349,0,10.96,3.302,10.96,8.761v11.82H61.923V55.121c0-2.955-0.826-4.118-3.815-4.118
	c-3.339,0-3.998,2.026-3.998,4.445v9.867H42.766V55.121c0-2.955-0.819-4.118-3.825-4.118c-3.317,0-3.97,2.026-3.97,4.445v9.867
	H23.631V45.301z"/>
<path fill="#FFFFFF" d="M106.416,65.315H95.903v-2.936c-2.832,2.775-5.62,3.516-10.305,3.516c-6.231,0-10.264-2.668-10.264-8.38
	V45.301h11.354v10.828c0,2.734,1.355,3.632,4.099,3.632c3.27,0,4.285-1.724,4.285-4.814v-9.646h11.345V65.315z"/>
<path fill="#FFFFFF" d="M129.136,52.954c-0.063-0.873-0.491-1.563-1.21-2.085c-0.705-0.52-1.701-0.794-2.942-0.794
	c-4.266,0-4.971,3.113-4.971,5.459c0,3.04,1.65,5.041,4.971,5.041c2.942,0,4.09-1.433,4.417-3.002h11.442
	c-0.958,6.08-7.964,8.323-15.859,8.323c-9.205,0-16.3-3.626-16.3-10.387c0-6.827,6.874-10.774,16.3-10.774
	c7.644,0,14.832,2.296,15.657,8.219H129.136z"/>
<path fill="#FFFFFF" d="M143.338,37.816h11.341v10.015c2.294-2.035,4.864-3.1,8.683-3.1c7.536,0,11.077,3.1,11.077,8.588v11.996
	h-11.342V54.752c0-1.994-0.794-3.749-3.982-3.749c-3.516,0-4.436,1.563-4.436,4.118v10.194h-11.341V37.816z"/>
<path fill="#FFFFFF" d="M35.593,114.764c0,2.64,0.856,3.182,3.459,3.824c1.669,0.46,1.953,0.807,1.953,1.279
	c0,0.535-0.463,0.907-1.018,0.907c-1.679,0-5.233-0.372-7.841-0.372c-2.426,0-5.494,0.372-7.451,0.372
	c-1.411,0-1.78-0.189-1.78-0.825c0-0.712,0.29-0.989,1.682-1.361c2.608-0.643,3.368-0.92,3.368-3.472V87.479
	c0-1.84-0.759-2.549-2.542-2.659c-1.478-0.069-1.837,0-1.837-0.702c0-0.832,0.277-0.737,4.748-2.646
	c5.677-2.464,5.879-4.303,6.896-4.303c0.472,0,0.75,0.208,0.75,2.025v4.026c0,0.432,0.091,0.523,0.284,0.523
	c0.554,0.104,4.278-5.992,11.445-5.992c7.29,0,7.756,6.25,9.155,6.25c1.396,0,4.388-6.25,11.278-6.25
	c5.214,0,9.968,3.528,9.968,10.462v26.703c0,1.946,0.472,2.86,2.99,3.604c1.773,0.529,2.52,0.611,2.52,1.349
	c0,0.718-0.567,0.907-1.226,0.907c-1.858,0-5.387-0.372-8.103-0.372c-2.221,0-5.769,0.372-7.167,0.372c-1.021,0-1.5-0.372-1.5-0.825
	c0-0.901,1.112-1.172,1.777-1.361c2.876-0.813,3.078-1.185,3.078-4.556V88.496c0-4.017-2.066-6.207-5.793-6.207
	c-4.203,0-7.822,3.749-7.822,7.485v23.704c0,3.729,0.46,4.744,3.254,5.204c1.767,0.365,2.618,0.63,2.618,1.374
	c0,0.453-0.283,0.718-1.128,0.718c-2.136,0-5.673-0.372-8.55-0.372c-1.792,0-5.522,0.372-7.394,0.372c-1.021,0-1.2-0.372-1.2-0.907
	c0-0.63,0.463-0.907,2.142-1.279c1.305-0.283,2.605-0.813,2.605-2.917V89.325c0-4.66-2.715-7.035-5.585-7.035
	c-4.672,0-8.033,3.465-8.033,7.848V114.764z"/>
<path fill="#FFFFFF" d="M99.271,121.884c-10.342,0-17.906-10.334-17.906-22.091s7.564-22.046,17.906-22.046
	c10.346,0,17.906,10.289,17.906,22.046S109.616,121.884,99.271,121.884 M108.596,99.793c0-8.478-3.238-19.878-9.325-19.878
	c-6.058,0-9.306,11.401-9.306,19.878c0,8.48,3.248,19.892,9.306,19.892C105.357,119.685,108.596,108.273,108.596,99.793"/>
<path fill="#FFFFFF" d="M129.11,113.479c0,3.289,1.021,4.738,3.913,5.116c3.453,0.447,3.749,0.643,3.749,1.348
	c0,0.372-0.296,0.832-1.053,0.832c-1.581,0-4.574-0.378-10.062-0.378c-4.852,0-7.826,0.378-9.515,0.378
	c-0.643,0-1.197-0.183-1.197-0.718c0-0.744,0.467-1.015,2.785-1.462c2.893-0.555,3.17-1.475,3.17-4.468V88.118
	c0-2.076-1.771-2.359-3.265-2.548c-1.203-0.173-2.136-0.359-2.136-1.096c0-1.374,1.676-0.826,7.171-3.818
	c3.83-2.098,3.83-3.28,4.675-3.28c0.453,0,0.655,0.718,0.655,2.184v7.104c0,0.277,0.088,0.372,0.164,0.372
	c0.378,0,4.297-9.284,10.635-9.284c3.353,0,5.778,2.716,5.778,5.8c0,2.924-1.683,6.052-4.568,6.052
	c-2.236,0-3.062-1.109-3.534-2.741c-0.567-1.827-0.195-3.478-1.771-3.478c-3.176,0-5.596,5.491-5.596,11.864V113.479z"/>
<path fill="#FFFFFF" d="M153.129,97.623c-1.568,0-1.966,0.265-1.966,3.185c0,8.758,3.919,16.501,11.001,16.501
	c9.779,0,9.237-7.296,11.184-7.296c0.763,0,1.046,0.378,1.046,1.097c0,2.293-4.416,10.774-14.838,10.774
	c-9.426,0-16.974-7.587-16.974-21.618c0-11.767,6.729-22.516,17.717-22.516c9.679,0,14.095,8.188,14.095,16.111
	c0,3.116-0.743,3.762-2.804,3.762H153.129z M160.576,79.917c-7.737,0-9.016,11.767-9.016,13.587c0,1.465,0.831,1.903,3.899,1.903
	c8.771,0,11.278-1.175,11.278-6.471C166.738,85.112,165.15,79.917,160.576,79.917"/>
<path fill="#FFFFFF" d="M112.931,141.314c0.485-5.595,6.175-8.316,11.24-8.316c3.22,0,7.788,1.096,7.435,5.104
	c-0.132,1.544-1.417,2.709-2.986,2.709c-1.979,0-2.608-1.745-2.533-3.352c0.058-1.55-0.34-2.256-2.11-2.256
	c-2.098,0-3.636,1.021-3.812,3.03c-0.221,2.382,1.669,4.114,3.062,5.602c2.332,2.583,4.278,5.167,3.951,8.966
	c-0.498,5.551-6.56,8.84-11.625,8.84c-3.68,0-8.721-1.739-8.33-6.193c0.151-1.745,1.311-3.03,3.163-3.03
	c1.639,0,2.924,1.103,2.767,2.848l-0.164,1.096l-0.145,1.021c-0.126,1.424,1.322,2.066,2.507,2.066c2.243,0,4.108-1.871,4.304-4.001
	c0.189-2.192-0.951-3.409-2.212-4.959C115.438,147.905,112.615,144.868,112.931,141.314"/>
<path fill="#FFFFFF" d="M171.149,153.129c-3.088,4.58-8.229,8.512-14.007,8.512c-6.597,0-9.867-4.322-9.351-10.188
	c0.813-9.23,8.966-18.454,19.274-18.454c3.566,0,8.097,1.688,7.75,5.67c-0.183,2.004-1.916,3.882-4.121,3.882
	c-2.117,0-3.729-1.349-3.56-3.358c0.17-1.865,1.442-2.249,1.519-3.145c0.075-0.844-1.002-1.108-1.758-1.108
	c-6.188,0-10.573,13.352-10.982,17.869c-0.227,2.634,0.989,5.279,4.215,5.279c3.988,0,7.271-3.087,9.533-6.049L171.149,153.129z"/>
<path fill="#FFFFFF" d="M33,135.26h-3.718l0.318-0.964h2.801c3.075,0,5.837-0.252,8.462-0.769l-2.546,7.617
	c4.367-4.983,7.684-7.617,11.502-7.617c3.658,0,5.535,2.048,5.227,5.5c-0.057,0.649-0.233,1.405-0.463,2.117
	c4.373-4.983,7.684-7.617,11.508-7.617c3.601,0,5.472,2.048,5.176,5.438c-0.142,1.663-0.744,3.257-1.408,4.983l-5.031,13.244
	c-0.227,0.567-0.375,1.021-0.394,1.285c-0.066,0.631,0.394,1.279,0.961,1.279c0.69,0,3.103-1.48,5.447-4.808l0.58,0.643
	c-2.942,4.222-6.156,6.333-9.073,6.333c-3.018,0-4.625-1.865-4.354-4.928c0.091-1.021,0.369-2.3,0.882-3.648l5.749-14.692
	c0.306-0.845,0.448-1.292,0.485-1.746c0.063-0.895-0.394-1.146-1.25-1.146c-0.8,0-2.82,0.938-5.003,2.993
	c-3.598,3.39-5.488,5.954-6.023,7.447l-5.138,14.882h-7.309l7.602-21.674c0.605-1.663,0.778-2.13,0.819-2.646
	c0.082-0.895-0.375-1.046-1.181-1.046c-0.794,0-2.82,0.889-4.937,2.948c-3.614,3.378-5.542,6.207-6.071,7.681l-5.195,14.737h-7.303
	L33,135.26z"/>
<path fill="#FFFFFF" d="M134.605,162.466c-3.648,0-6.339-2.917-4.789-6.634l8.159-19.696l-2.866-0.573l0.208-2.205h12.374
	l-9.318,22.475c-0.372,0.856,0.025,1.6,1.021,1.6c0.8,0,1.858-0.743,2.243-1.6l1.084-2.533h2.394l-1.096,2.533
	C142.487,159.486,138.266,162.466,134.605,162.466"/>
<path fill="#FFFFFF" d="M105.099,151.78c-0.794,1.229-3.176,5.671-5.097,5.671c-1.09,0-1.128-1.229-1.065-2.01
	c0.227-2.508,2.123-7.668,3.094-10.245l4.877-11.676h-7.429l-2.567,5.872c-1.805,4.19-7.696,18.059-13.323,18.059
	c-1.175,0-1.957-0.517-1.859-1.683c0.129-1.411,1.896-5.154,2.498-6.515l2.057-4.638c0.936-2.117,2.316-5.355,2.505-7.485
	c0.217-2.514-1.705-4.133-4.31-4.133c-4.82,0-8.112,3.604-10.62,7.265l1.178,0.73c1.279-1.72,3.09-4.127,4.704-4.127
	c0.819,0,1.112,0.655,1.046,1.361c-0.085,1.033-0.936,2.842-1.355,3.742l-2.722,6.837c-0.955,2.192-2.407,5.487-2.602,7.743
	c-0.277,3.15,2.025,5.091,5.182,5.091c5.639,0,10.428-5.229,12.942-9.603l0.123,0.127c-0.463,1.48-0.888,3.1-1.03,4.77
	c-0.22,2.45,1.238,4.706,4.052,4.706c5.289,0,8.997-5.343,10.988-9.413L105.099,151.78z"/>
</svg>
